# xmcd CD database file
#
# Track frame offsets:
#	150
#	21423
#	37881
#	58727
#	82247
#	103317
#	126262
#	151008
#	169468
#	192743
#	213850
#	230930
#	254899
#
# Disc length: 3556 seconds
#
# Revision: 0
# Processed by: cddbd v1.5.1PL0 Copyright (c) Steve Scherf et al.
# Submitted via: CDex 1.51
#
DISCID=c90de20d
DTITLE=Axé swing - La belette
DYEAR=2001
DGENRE=Jazz
TTITLE0=Le clown
TTITLE1=La belette
TTITLE2=Douce ambiance
TTITLE3=Antivol
TTITLE4=Manoir de mes reves
TTITLE5=Ambre
TTITLE6=Swing 01
TTITLE7=Pour l'instant
TTITLE8=Boule de cristal
TTITLE9=Dolly
TTITLE10=Chez Cyril
TTITLE11=L'optimiste
TTITLE12=Si tu veux
EXTD=YEAR: 2001
EXTT0=
EXTT1=
EXTT2=
EXTT3=
EXTT4=
EXTT5=
EXTT6=
EXTT7=
EXTT8=
EXTT9=
EXTT10=
EXTT11=
EXTT12=
PLAYORDER=
